<svg width="32" height="33" viewBox="0 0 32 33" fill="none" xmlns="http://www.w3.org/2000/svg">
<path d="M15.375 15.8753H0.666626V5.08364C0.666626 2.92399 2.42363 1.16699 4.58328 1.16699H15.375V15.8753Z" fill="white"/>
<path d="M14.7083 15.2083V1.83333H4.58332C2.79127 1.83333 1.33333 3.29127 1.33333 5.08332V15.2083H14.7083ZM16.0417 16.5417H0V5.08332C0 2.55104 2.05104 0.5 4.58332 0.5H16.0417V16.5417Z" fill="#93A000"/>
<path d="M16 32.5C24.8366 32.5 32 25.3366 32 16.5C32 7.66344 24.8366 0.5 16 0.5C7.16344 0.5 0 7.66344 0 16.5C0 25.3366 7.16344 32.5 16 32.5Z" fill="white"/>
<path d="M16 31.8337C24.4683 31.8337 31.3333 24.9687 31.3333 16.5003C31.3333 8.03196 24.4683 1.16699 16 1.16699C7.53159 1.16699 0.666626 8.03196 0.666626 16.5003C0.666626 24.9687 7.53159 31.8337 16 31.8337Z" stroke="#93A000"/>
<path d="M17.1107 17.6116H1.416L1.06934 6.15298C1.06934 4.93758 1.55215 3.77196 2.41157 2.91254C3.27098 2.05313 4.4366 1.57031 5.652 1.57031L17.4987 1.91698L17.1107 17.6116Z" fill="white"/>
<path d="M22.5839 24.2052V21.983H20.7064V19.7607H10.3483V21.983H8.46378V24.2052H7.52502V26.4274H23.525V24.2052H22.5839Z" fill="#93A000"/>
<path d="M15.8193 6.73162C17.5928 6.76389 19.2815 7.52499 20.5149 8.84789C21.7482 10.1708 22.4255 11.9474 22.3979 13.7879C22.4015 14.9239 22.1439 16.0445 21.6466 17.0565C21.1492 18.0685 20.4264 18.9429 19.5382 19.607H12.0902C11.2028 18.9421 10.4806 18.0675 9.98337 17.0557C9.48611 16.0438 9.22804 14.9237 9.23048 13.7879C9.207 11.9468 9.88693 10.171 11.1216 8.84875C12.3563 7.52647 14.0453 6.76528 15.8193 6.73162ZM15.8193 4.5C13.4841 4.54025 11.2598 5.54131 9.63576 7.28304C8.01167 9.02477 7.1207 11.3646 7.15876 13.7879C7.1507 15.4038 7.54629 16.9943 8.30698 18.4043C9.06767 19.8144 10.1675 20.9958 11.4992 21.8333H20.1495C21.4812 20.9958 22.5811 19.8144 23.3418 18.4043C24.1024 16.9943 24.498 15.4038 24.49 13.7879C24.5243 11.3639 23.6307 9.02473 22.0052 7.28354C20.3797 5.54234 18.1551 4.5413 15.8193 4.5V4.5Z" fill="#93A000"/>
</svg>
