<svg width="32" height="33" viewBox="0 0 32 33" fill="none" xmlns="http://www.w3.org/2000/svg">
<g clip-path="url(#clip0_976_76122)">
<path d="M16 32.1663C11.8153 32.1663 7.88108 30.5367 4.92202 27.5776C1.96295 24.6185 0.333313 20.6843 0.333313 16.4997V4.49967C0.333313 2.47786 1.97817 0.833008 3.99998 0.833008H16C20.1846 0.833008 24.1188 2.46265 27.0779 5.42173C30.037 8.38081 31.6666 12.315 31.6666 16.4997C31.6666 20.6843 30.037 24.6185 27.0779 27.5776C24.1188 30.5367 20.1846 32.1663 16 32.1663Z" fill="white"/>
<path d="M4 1.16667C2.16199 1.16667 0.666667 2.662 0.666667 4.5V16.5C0.666667 20.5956 2.26164 24.4461 5.15776 27.3422C8.05387 30.2384 11.9044 31.8333 16 31.8333C20.0956 31.8333 23.9461 30.2384 26.8422 27.3422C29.7384 24.4461 31.3333 20.5956 31.3333 16.5C31.3333 12.4044 29.7384 8.55388 26.8422 5.65776C23.9461 2.76163 20.0956 1.16667 16 1.16667H4ZM4 0.5H16C24.8363 0.5 32 7.6636 32 16.5C32 25.3364 24.8363 32.5 16 32.5C7.16357 32.5 0 25.3364 0 16.5V4.5C0 2.2908 1.79077 0.5 4 0.5Z" fill="#0078C9"/>
<path d="M25.3334 8.5H12C11.2636 8.5 10.6667 9.09695 10.6667 9.83333V19.1667C10.6667 19.903 11.2636 20.5 12 20.5H25.3334C26.0697 20.5 26.6667 19.903 26.6667 19.1667V9.83333C26.6667 9.09695 26.0697 8.5 25.3334 8.5Z" fill="#0078C9"/>
<path d="M21.3334 24.5H8.00002C7.6464 24.5 7.30726 24.3595 7.05721 24.1095C6.80716 23.8594 6.66669 23.5203 6.66669 23.1667V13.8333C6.66669 13.4797 6.80716 13.1406 7.05721 12.8905C7.30726 12.6405 7.6464 12.5 8.00002 12.5H8.95335V22.3173H22.6667V23.1667C22.6667 23.5203 22.5262 23.8594 22.2762 24.1095C22.0261 24.3595 21.687 24.5 21.3334 24.5Z" fill="#0078C9"/>
<path d="M21.3334 9.83333H16C15.6464 9.83333 15.3073 9.69286 15.0572 9.44281C14.8072 9.19276 14.6667 8.85362 14.6667 8.5V5.83333C14.6667 5.47971 14.8072 5.14057 15.0572 4.89052C15.3073 4.64048 15.6464 4.5 16 4.5H21.3334C21.687 4.5 22.0261 4.64048 22.2762 4.89052C22.5262 5.14057 22.6667 5.47971 22.6667 5.83333V8.5C22.6667 8.85362 22.5262 9.19276 22.2762 9.44281C22.0261 9.69286 21.687 9.83333 21.3334 9.83333ZM16.6667 6.27733V8.056H20.6667V6.27733H16.6667Z" fill="#0078C9"/>
</g>
<defs>
<clipPath id="clip0_976_76122">
<rect width="32" height="32" fill="white" transform="translate(0 0.5)"/>
</clipPath>
</defs>
</svg>
