<svg width="32" height="33" viewBox="0 0 32 33" fill="none" xmlns="http://www.w3.org/2000/svg">
<path d="M16 32.1005C13.894 32.1005 11.851 31.6879 9.92805 30.8746C8.07047 30.0889 6.4021 28.9641 4.96927 27.5313C3.53646 26.0983 2.41157 24.4301 1.62586 22.5725C0.8125 20.6494 0.400085 18.6065 0.400085 16.5003V4.50039C0.400085 2.51534 2.01503 0.900391 4.00009 0.900391H16C18.1062 0.900391 20.1491 1.3128 22.0722 2.12618C23.9298 2.91189 25.598 4.03677 27.031 5.46958C28.4638 6.90241 29.5886 8.57078 30.3743 10.4284C31.1876 12.3513 31.6002 14.3943 31.6002 16.5003C31.6002 18.6065 31.1876 20.6494 30.3743 22.5725C29.5886 24.4301 28.4638 26.0983 27.031 27.5313C25.598 28.9641 23.9298 30.0889 22.0722 30.8746C20.1491 31.6879 18.1062 32.1005 16 32.1005Z" fill="white"/>
<path d="M4 1.3C2.23551 1.3 0.8 2.73551 0.8 4.5V16.5C0.8 18.5523 1.20178 20.5428 1.99419 22.4163C2.75973 24.2261 3.85583 25.8517 5.25204 27.248C6.64824 28.6441 8.27389 29.7403 10.0838 30.5059C11.9572 31.2983 13.9477 31.7 16 31.7C18.0523 31.7 20.0428 31.2983 21.9163 30.5059C23.7261 29.7403 25.3517 28.6441 26.748 27.248C28.1441 25.8517 29.2403 24.2261 30.0059 22.4163C30.7983 20.5428 31.2 18.5523 31.2 16.5C31.2 14.4477 30.7983 12.4572 30.0059 10.5838C29.2403 8.77388 28.1441 7.14825 26.748 5.75204C25.3517 4.35583 23.7261 3.25972 21.9163 2.49419C20.0428 1.70178 18.0523 1.3 16 1.3H4ZM4 0.5H16C24.8364 0.5 32 7.6636 32 16.5C32 25.3364 24.8364 32.5 16 32.5C7.1636 32.5 0 25.3364 0 16.5V4.5C0 2.2908 1.7908 0.5 4 0.5Z" fill="#A31F15"/>
<path d="M6.77704 13.3465C9.329 10.13 13.1529 8.74538 16.3019 10.2216C19.4507 11.6978 20.9739 15.5891 20.3303 19.7002C20.9788 18.8828 21.5452 17.9471 21.9975 16.91C24.2295 11.7918 22.8375 6.14189 18.8883 4.29053C14.9392 2.43917 9.92839 5.08745 7.69636 10.2056C7.24408 11.2427 6.9406 12.3017 6.77704 13.3465Z" fill="#A31F15"/>
<path d="M23.8056 10.7871C25.0656 14.7037 24.1069 18.6805 21.1489 20.5141C18.191 22.3477 14.127 21.4845 11.0744 18.6791C11.3946 19.6745 11.8581 20.666 12.4685 21.6173C15.4809 26.3127 20.9301 28.2547 24.6397 25.9551C28.3493 23.6555 28.9146 17.9851 25.9022 13.2898C25.2918 12.3384 24.5813 11.5001 23.8056 10.7871Z" fill="#A31F15"/>
<path d="M17.3065 26.9388C13.3039 26.1007 10.3486 23.2919 10.2324 19.7959C10.1162 16.2999 12.8741 13.1725 16.8062 11.8918C15.7892 11.6788 14.7042 11.5931 13.5812 11.6558C8.03891 11.9649 3.66413 15.7696 3.80987 20.154C3.95562 24.5385 8.5667 27.8422 14.109 27.5331C15.2321 27.4704 16.3072 27.2643 17.3065 26.9388Z" fill="#A31F15"/>
</svg>
